<?xml version="1.0" standalone="no"?>
<!DOCTYPE svg PUBLIC "-//W3C//DTD SVG 20010904//EN"
 "http://www.w3.org/TR/2001/REC-SVG-20010904/DTD/svg10.dtd">
<svg version="1.0" xmlns="http://www.w3.org/2000/svg"
 width="500.000000pt" height="500.000000pt" viewBox="0 0 500.000000 500.000000"
 preserveAspectRatio="xMidYMid meet">

<g transform="translate(0.000000,500.000000) scale(0.100000,-0.100000)"
fill="#000000" stroke="none">
<path d="M0 2500 l0 -2500 2500 0 2500 0 0 2500 0 2500 -2500 0 -2500 0 0
-2500z m3840 1010 c0 -91 3 -130 11 -130 7 0 178 50 381 112 295 89 371 109
378 98 22 -35 92 -242 84 -249 -5 -4 -129 -43 -276 -86 -147 -43 -265 -81
-262 -84 2 -3 124 -40 271 -83 146 -43 268 -80 271 -82 2 -3 -17 -63 -43 -135
-47 -128 -47 -129 -74 -121 -14 4 -184 55 -376 114 -193 58 -354 106 -358 106
-4 0 -7 -387 -7 -860 l0 -860 -130 0 -130 0 0 879 0 879 -401 -133 c-271 -91
-402 -130 -404 -122 -65 174 -93 252 -92 253 1 1 112 34 247 73 135 40 261 77
280 83 33 10 22 15 -244 94 -153 46 -280 84 -281 86 -7 8 92 258 102 258 7 0
182 -49 390 -110 207 -60 383 -110 390 -110 10 0 13 31 13 130 l0 130 130 0
130 0 0 -130z m-2412 -315 l637 -425 3 425 2 425 150 0 150 0 0 -1185 0 -1185
-150 0 -150 0 -2 597 -3 596 -325 229 c-313 220 -325 227 -336 205 -6 -12
-148 -383 -315 -824 l-304 -803 -147 0 -148 0 0 1185 0 1185 150 0 150 0 638
-425z"/>
<path d="M780 2684 c0 -334 2 -605 5 -602 5 4 209 558 325 879 l38 105 -171
110 c-94 60 -176 110 -184 112 -11 3 -13 -103 -13 -604z"/>
</g>
</svg>
